<svg viewBox="0 0 720 520" width="720" height="520" xmlns="http://www.w3.org/2000/svg"><defs><mask id="imagine-text-gaps-5po6ia" maskUnits="userSpaceOnUse"><rect x="0" y="0" width="720" height="520" fill="white"/><rect x="69.32500457763672" y="445.20001220703125" width="21.350000381469727" height="17.199999809265137" fill="black" rx="2"/><rect x="174.65000915527344" y="445.20001220703125" width="34.70000076293945" height="17.199999809265137" fill="black" rx="2"/><rect x="286.6499938964844" y="445.20001220703125" width="34.70000076293945" height="17.199999809265137" fill="black" rx="2"/><rect x="398.6499938964844" y="445.20001220703125" width="34.70000076293945" height="17.199999809265137" fill="black" rx="2"/><rect x="510.6500244140625" y="445.20001220703125" width="34.70000076293945" height="17.199999809265137" fill="black" rx="2"/><rect x="622.6500244140625" y="445.20001220703125" width="34.70000076293945" height="17.199999809265137" fill="black" rx="2"/><rect x="43.98125076293945" y="431.20001220703125" width="32.01875114440918" height="17.199999809265137" fill="black" rx="2"/><rect x="43.98125076293945" y="368.20001220703125" width="32.01875114440918" height="17.199999809265137" fill="black" rx="2"/><rect x="43.98125076293945" y="304.20001220703125" width="32.01875114440918" height="17.199999809265137" fill="black" rx="2"/><rect x="43.98125076293945" y="241.1999969482422" width="32.01875114440918" height="17.199999809265137" fill="black" rx="2"/><rect x="43.98125076293945" y="177.1999969482422" width="32.01875114440918" height="17.199999809265137" fill="black" rx="2"/><rect x="43.98125076293945" y="114.20000457763672" width="32.01875114440918" height="17.199999809265137" fill="black" rx="2"/><rect x="37.306251525878906" y="50.20000076293945" width="38.69375038146973" height="17.199999809265137" fill="black" rx="2"/><rect x="219.95938110351562" y="466.6000061035156" width="280.0812683105469" height="21.600000381469727" fill="black" rx="2"/><rect x="470" y="66.20000457763672" width="131.6312484741211" height="17.199999809265137" fill="black" rx="2"/><rect x="469.6000061035156" y="88.20000457763672" width="112.46875" height="17.199999809265137" fill="black" rx="2"/><rect x="470" y="110.20000457763672" width="124.0625" height="17.199999809265137" fill="black" rx="2"/><rect x="470" y="132.1999969482422" width="116.6953125" height="17.199999809265137" fill="black" rx="2"/></mask><style>.chart-grid line{stroke:#b5b5b5 !important;stroke-width:1 !important}@media (prefers-color-scheme: dark){.chart-grid line{stroke:#6a6a6a !important}.chart-axis{stroke:#bbb !important}.chart-labels text,text.chart-label{fill:#e0e0e0 !important}.chart-legend text{fill:#e0e0e0 !important}}</style></defs>

  <!-- Grid lines -->
  <g class="chart-grid" stroke="#d0d0d0" stroke-width="0.75" stroke-dasharray="4 3">
    <line x1="192" y1="60" x2="192" y2="440"/>
    <line x1="304" y1="60" x2="304" y2="440"/>
    <line x1="416" y1="60" x2="416" y2="440"/>
    <line x1="528" y1="60" x2="528" y2="440"/>
    <line x1="80" y1="440" x2="640" y2="440"/>
    <line x1="80" y1="377" x2="640" y2="377"/>
    <line x1="80" y1="313" x2="640" y2="313"/>
    <line x1="80" y1="250" x2="640" y2="250" mask="url(#imagine-text-gaps-5po6ia)"/>
    <line x1="80" y1="187" x2="640" y2="187"/>
    <line x1="80" y1="123" x2="640" y2="123"/>
    <line x1="80" y1="60" x2="640" y2="60"/>
  </g>

  <!-- Axes -->
  <line class="chart-axis" x1="80" y1="60" x2="80" y2="445" stroke="#333" stroke-width="1.5" mask="url(#imagine-text-gaps-5po6ia)"/>
  <line class="chart-axis" x1="75" y1="440" x2="645" y2="440" stroke="#333" stroke-width="1.5" mask="url(#imagine-text-gaps-5po6ia)"/>

  <!-- X tick labels -->
  <g class="chart-labels" font-family="sans-serif" font-size="12" fill="#333" text-anchor="middle">
    <text x="80" y="458">$0</text>
    <text x="192" y="458">$100</text>
    <text x="304" y="458">$200</text>
    <text x="416" y="458">$300</text>
    <text x="528" y="458">$400</text>
    <text x="640" y="458">$500</text>
  </g>

  <!-- Y tick labels -->
  <g class="chart-labels" font-family="sans-serif" font-size="12" fill="#333" text-anchor="end">
    <text x="72" y="444">40%</text>
    <text x="72" y="381">50%</text>
    <text x="72" y="317">60%</text>
    <text x="72" y="254">70%</text>
    <text x="72" y="190">80%</text>
    <text x="72" y="127">90%</text>
    <text x="72" y="63">100%</text>
  </g>

  <!-- Axis titles — larger -->
  <text class="chart-label" x="360" y="483" font-family="sans-serif" font-size="16" fill="#111" text-anchor="middle" font-weight="500">Conversion system capital cost ($/kW)</text>
  <text class="chart-label" x="18" y="260" font-family="sans-serif" font-size="16" fill="#111" text-anchor="middle" font-weight="500" transform="rotate(-90,18,260)">Conversion efficiency (%)</text>

  <!-- MHD (orange, dashed) — behind others -->
  <rect x="170" y="215" width="268" height="102" rx="22" ry="22" fill="rgba(186,117,23,0.13)" stroke="#BA7517" stroke-width="1.5" stroke-dasharray="5 4"/>

  <!-- sCO₂ Brayton (red) -->
  <rect x="234" y="355" width="67" height="38" rx="12" ry="12" fill="rgba(226,75,74,0.22)" stroke="#E24B4A" stroke-width="1.5"/>

  <!-- Venetian blind (blue) -->
  <rect x="302" y="236" width="136" height="143" rx="22" ry="22" fill="rgba(55,138,221,0.22)" stroke="#378ADD" stroke-width="1.5"/>

  <!-- Pulsed inductive (green) -->
  <rect x="304" y="120" width="112" height="133" rx="22" ry="22" fill="rgba(99,153,34,0.22)" stroke="#639922" stroke-width="1.5"/>

  <!-- Box labels -->
  <g font-family="sans-serif" font-size="13" font-weight="500" text-anchor="middle">
    <text x="360" y="140" fill="#639922">Pulsed inductive</text>
    <text x="237" y="238" fill="#BA7517">MHD (no cost basis)</text>
    <text x="370" y="335" fill="#378ADD">Venetian blind</text>
    <text x="267" y="348" fill="#E24B4A">sCO₂ Brayton</text>
  </g>

  <!-- Legend — top -->
  <g class="chart-legend" font-family="sans-serif" font-size="12" fill="#222">
    <rect x="50" y="14" width="13" height="13" rx="3" fill="rgba(226,75,74,0.45)" stroke="#E24B4A" stroke-width="1.2"/>
    <text x="69" y="25">sCO₂ Brayton (thermal)</text>
    <rect x="220" y="14" width="13" height="13" rx="3" fill="rgba(55,138,221,0.40)" stroke="#378ADD" stroke-width="1.2"/>
    <text x="239" y="25">Venetian blind DEC</text>
    <rect x="370" y="14" width="13" height="13" rx="3" fill="rgba(99,153,34,0.40)" stroke="#639922" stroke-width="1.2"/>
    <text x="389" y="25">Pulsed inductive DEC</text>
    <rect x="530" y="14" width="13" height="13" rx="3" fill="rgba(186,117,23,0.20)" stroke="#BA7517" stroke-width="1.2" stroke-dasharray="4 3"/>
    <text x="549" y="25">MHD (no cost basis)</text>
  </g>

</svg>