<svg viewBox="0 0 720 520" width="720" height="520" xmlns="http://www.w3.org/2000/svg"><defs><style>.chart-grid line{stroke:#b5b5b5 !important;stroke-width:1 !important}@media (prefers-color-scheme: dark){.chart-grid line{stroke:#6a6a6a !important}.chart-axis{stroke:#bbb !important}.chart-labels text,text.chart-label{fill:#e0e0e0 !important}.chart-legend text{fill:#e0e0e0 !important}}</style></defs>

  <!-- Grid lines: vertical at every $100 from $100..$600, horizontal at every 10% -->
  <g class="chart-grid" stroke="#d0d0d0" stroke-width="0.75" stroke-dasharray="4 3">
    <line x1="160" y1="60" x2="160" y2="440"/>
    <line x1="240" y1="60" x2="240" y2="440"/>
    <line x1="320" y1="60" x2="320" y2="440"/>
    <line x1="400" y1="60" x2="400" y2="440"/>
    <line x1="480" y1="60" x2="480" y2="440"/>
    <line x1="560" y1="60" x2="560" y2="440"/>
    <line x1="80" y1="377" x2="640" y2="377"/>
    <line x1="80" y1="313" x2="640" y2="313"/>
    <line x1="80" y1="250" x2="640" y2="250"/>
    <line x1="80" y1="187" x2="640" y2="187"/>
    <line x1="80" y1="123" x2="640" y2="123"/>
    <line x1="80" y1="60" x2="640" y2="60"/>
  </g>

  <!-- Axes -->
  <line class="chart-axis" x1="80" y1="60" x2="80" y2="445" stroke="#333" stroke-width="1.5"/>
  <line class="chart-axis" x1="75" y1="440" x2="645" y2="440" stroke="#333" stroke-width="1.5"/>

  <!-- X tick labels: $0, $100, ..., $700 at 80px spacing -->
  <g class="chart-labels" font-family="sans-serif" font-size="12" fill="#333" text-anchor="middle">
    <text x="80" y="458">$0</text>
    <text x="160" y="458">$100</text>
    <text x="240" y="458">$200</text>
    <text x="320" y="458">$300</text>
    <text x="400" y="458">$400</text>
    <text x="480" y="458">$500</text>
    <text x="560" y="458">$600</text>
    <text x="640" y="458">$700</text>
  </g>

  <!-- Y tick labels -->
  <g class="chart-labels" font-family="sans-serif" font-size="12" fill="#333" text-anchor="end">
    <text x="72" y="444">40%</text>
    <text x="72" y="381">50%</text>
    <text x="72" y="317">60%</text>
    <text x="72" y="254">70%</text>
    <text x="72" y="190">80%</text>
    <text x="72" y="127">90%</text>
    <text x="72" y="63">100%</text>
  </g>

  <!-- Axis titles -->
  <text class="chart-label" x="360" y="483" font-family="sans-serif" font-size="16" fill="#111" text-anchor="middle" font-weight="500">Conversion system capital cost ($/kW)</text>
  <text class="chart-label" x="18" y="260" font-family="sans-serif" font-size="16" fill="#111" text-anchor="middle" font-weight="500" transform="rotate(-90,18,260)">Conversion efficiency (%)</text>

  <!-- MHD ($80-320/kW, 60-75%, dashed, no cost basis) - behind others -->
  <rect x="144" y="218" width="192" height="95" rx="22" ry="22" fill="rgba(186,117,23,0.13)" stroke="#BA7517" stroke-width="1.5" stroke-dasharray="5 4"/>

  <!-- sCO2 Brayton ($140-200/kW, 47-53%) -->
  <rect x="192" y="358" width="48" height="38" rx="12" ry="12" fill="rgba(226,75,74,0.22)" stroke="#E24B4A" stroke-width="1.5"/>

  <!-- Venetian blind ($197-320/kW, 48-70%) -->
  <rect x="238" y="250" width="98" height="139" rx="22" ry="22" fill="rgba(55,138,221,0.22)" stroke="#378ADD" stroke-width="1.5"/>

  <!-- Pulsed inductive ($540-660/kW, 68-87%, Kirtley range at NOAK $0.50/J cap) -->
  <rect x="512" y="142" width="96" height="121" rx="22" ry="22" fill="rgba(99,153,34,0.22)" stroke="#639922" stroke-width="1.5"/>

  <!-- Box labels -->
  <g font-family="sans-serif" font-size="13" font-weight="500" text-anchor="middle">
    <text x="560" y="130" fill="#639922">Pulsed inductive</text>
    <text x="240" y="208" fill="#BA7517">MHD generator (no cost basis)</text>
    <text x="287" y="405" fill="#378ADD">Venetian blind</text>
    <text x="216" y="420" fill="#E24B4A">sCO₂ Brayton</text>
  </g>

  <!-- Footnote on pulsed inductive cost assumption -->
  <g font-family="sans-serif" font-size="10" fill="#666" text-anchor="end">
    <text x="640" y="501">Pulsed inductive assumes NOAK $0.50/J cap banks; today's $2-4/J shifts the range roughly $1,000/kW higher.</text>
  </g>

  <!-- Legend - top -->
  <g class="chart-legend" font-family="sans-serif" font-size="12" fill="#222">
    <rect x="50" y="14" width="13" height="13" rx="3" fill="rgba(226,75,74,0.45)" stroke="#E24B4A" stroke-width="1.2"/>
    <text x="69" y="25">sCO₂ Brayton (thermal)</text>
    <rect x="220" y="14" width="13" height="13" rx="3" fill="rgba(55,138,221,0.40)" stroke="#378ADD" stroke-width="1.2"/>
    <text x="239" y="25">Venetian blind DEC</text>
    <rect x="370" y="14" width="13" height="13" rx="3" fill="rgba(99,153,34,0.40)" stroke="#639922" stroke-width="1.2"/>
    <text x="389" y="25">Pulsed inductive DEC</text>
    <rect x="540" y="14" width="13" height="13" rx="3" fill="rgba(186,117,23,0.20)" stroke="#BA7517" stroke-width="1.2" stroke-dasharray="4 3"/>
    <text x="559" y="25">MHD generator</text>
  </g>

</svg>
